# xmcd CD database file
#
# Track frame offsets:
#	200
#	12170
#	23997
#	36327
#	47407
#	57357
#	72902
#	81905
#	94050
#	108942
#	121142
#	129497
#
# Disc length: 1892 seconds
#
# Revision: 0
# Processed by: cddbd v1.4PL0 Copyright (c) Steve Scherf et al.
# Submitted via: CDex 1.50Beta7
#
DISCID=9707620c
DTITLE=Hank Wangford - Stormy Horizons
DYEAR=1990
DGENRE=Country
TTITLE0=My Lips Want To Stay
TTITLE1=This Cold War
TTITLE2=Ghosts
TTITLE3=Tongue Tied
TTITLE4=Live Alone With You
TTITLE5=Stormy Horizons
TTITLE6=Your Cheating Ways
TTITLE7=Excuses
TTITLE8=On The Line
TTITLE9=Anyway
TTITLE10=I'm Using My Bible As A Roadmap
TTITLE11=End Of The Road
EXTD=YEAR: 1990
EXTT0=
EXTT1=
EXTT2=
EXTT3=
EXTT4=
EXTT5=
EXTT6=
EXTT7=
EXTT8=
EXTT9=
EXTT10=
EXTT11=
PLAYORDER=
